<svg xmlns="http://www.w3.org/2000/svg" width="32" height="32.014" viewBox="0 0 32 32.014">
  <g id="closed-tasks-icon" transform="translate(-1391 -283.993)">
    <g id="Group_3518" data-name="Group 3518" transform="translate(1391 284)">
      <g id="Group_3517" data-name="Group 3517" opacity="0">
        <path id="closed-tasks-icon-2" data-name="closed-tasks-icon" d="M0,0H32V32H0Z" fill="#45bf55"/>
      </g>
      <path id="Path_711" data-name="Path 711" d="M18.736,20.481a1.607,1.607,0,0,0-2.273,2.273l4.8,4.8a1.632,1.632,0,0,0,1.136.464h0a1.608,1.608,0,0,0,1.152-.544l11.2-12.805a1.6,1.6,0,0,0-2.4-2.113L22.4,24.083Z" transform="translate(-6.409 -5.618)" fill="#45bf55"/>
      <path id="Path_712" data-name="Path 712" d="M34.434,18.406h0a1.605,1.605,0,0,0-1.6,1.6A12.8,12.8,0,0,1,20.027,32.812h0a12.805,12.805,0,0,1,0-25.611,14.412,14.412,0,0,1,3.041.352,1.6,1.6,0,0,0,1.609-.4,1.6,1.6,0,0,0-.856-2.705A16.78,16.78,0,0,0,20.027,4a16.007,16.007,0,0,0,0,32.014h0A16,16,0,0,0,36.034,20.007,1.605,1.605,0,0,0,34.434,18.406Z" transform="translate(-4.034 -4.007)" fill="#45bf55"/>
      <path id="Path_713" data-name="Path 713" d="M0,0H32V32H0Z" fill="none"/>
    </g>
  </g>
</svg>
