<svg xmlns="http://www.w3.org/2000/svg" width="22.934" height="22.934" viewBox="0 0 22.934 22.934">
  <g id="colors-square" transform="translate(-2 -2)">
    <g id="Path_731" data-name="Path 731" fill="none" stroke-linecap="round" stroke-linejoin="round">
      <path d="M18.28,2h-9.6C4.49,2,2,4.49,2,8.666v9.6c0,4.176,2.49,6.666,6.666,6.666h9.6c4.176,0,6.666-2.49,6.666-6.666v-9.6C24.945,4.49,22.456,2,18.28,2Z" stroke="none"/>
      <path d="M 8.67713737487793 3.5 C 7.029117584228516 3.5 5.698198318481445 3.959260940551758 4.828237533569336 4.828130722045898 C 3.959297180175781 5.69597053527832 3.499998092651367 7.022970199584961 3.499998092651367 8.665651321411133 L 3.499998092651367 18.26832962036133 C 3.499998092651367 19.91086959838867 3.959028244018555 21.23809051513672 4.827457427978516 22.10652160644531 C 5.695888519287109 22.97495079040527 7.023117065429688 23.43398094177246 8.665657043457031 23.43398094177246 L 18.2683277130127 23.43398094177246 C 19.91086769104004 23.43398094177246 21.23808670043945 22.97495079040527 22.10651779174805 22.10652160644531 C 22.97494697570801 21.23809051513672 23.4339771270752 19.91086959838867 23.4339771270752 18.26832962036133 L 23.43398857116699 8.661529541015625 C 23.4384880065918 7.02202033996582 22.9833984375 5.696680068969727 22.1179084777832 4.82880973815918 C 21.25097846984863 3.959501266479492 19.92377853393555 3.5 18.2797966003418 3.5 L 8.67713737487793 3.5 M 8.67713737487793 2 L 18.2797966003418 2 C 22.45586776733398 2 24.94545745849609 4.489580154418945 24.9339771270752 8.665651321411133 L 24.9339771270752 18.26832962036133 C 24.9339771270752 22.44440078735352 22.44439697265625 24.93398094177246 18.2683277130127 24.93398094177246 L 8.665657043457031 24.93398094177246 C 4.489578247070312 24.93398094177246 1.999998092651367 22.44440078735352 1.999998092651367 18.26832962036133 L 1.999998092651367 8.665651321411133 C 1.999998092651367 4.489580154418945 4.489597320556641 2 8.67713737487793 2 Z" stroke="none" fill="#98a1b4"/>
    </g>
    <path id="Path_732" data-name="Path 732" d="M14.26,14.911A4.13,4.13,0,1,1,9.04,10.93,4.143,4.143,0,0,0,11.794,13.4a4.237,4.237,0,0,0,1.09.149,3.79,3.79,0,0,0,1.09-.149A4.089,4.089,0,0,1,14.26,14.911Z" transform="translate(0.589 1.315)" fill="#45bf55"/>
    <path id="Path_733" data-name="Path 733" d="M16.661,10.13a4.2,4.2,0,0,1-.287,1.526,4.142,4.142,0,0,1-2.753,2.467,4.236,4.236,0,0,1-1.09.149,3.79,3.79,0,0,1-1.09-.149,4.115,4.115,0,0,1-2.753-2.467A4.2,4.2,0,0,1,8.4,10.13a4.13,4.13,0,1,1,8.26,0Z" transform="translate(0.943 0.589)" fill="#348cf2"/>
    <path id="Path_734" data-name="Path 734" d="M18.884,14.914A4.127,4.127,0,0,1,12,17.989a4.074,4.074,0,0,0,1.377-3.075,4.2,4.2,0,0,0-.287-1.526,4.116,4.116,0,0,0,2.753-2.467A4.153,4.153,0,0,1,18.884,14.914Z" transform="translate(1.473 1.314)" fill="#e82536" opacity="0.85"/>
  </g>
</svg>
