<svg xmlns="http://www.w3.org/2000/svg" width="16.93" height="16.93" viewBox="0 0 16.93 16.93">
  <g id="color-swatch" transform="translate(-1.25 -1.25)">
    <path id="Path_735" data-name="Path 735" d="M8.172,3.929V14.344a3.092,3.092,0,0,1-.88,2.153l-.031.031a2.43,2.43,0,0,1-.216.193,2.7,2.7,0,0,1-.764.463c-.085.039-.17.069-.255.1a3,3,0,0,1-.941.147,3.283,3.283,0,0,1-.617-.062c-.1-.023-.2-.046-.3-.077a2.786,2.786,0,0,1-.355-.131c0-.008,0-.008-.008,0a3.89,3.89,0,0,1-.617-.378l-.008-.008a2.117,2.117,0,0,1-.278-.247c-.085-.093-.17-.185-.255-.285a3.89,3.89,0,0,1-.378-.617c.008-.008.008-.008,0-.008a.024.024,0,0,0-.008-.015c-.046-.108-.085-.224-.123-.339-.031-.1-.054-.2-.077-.3A3.283,3.283,0,0,1,2,14.344V3.929A1.822,1.822,0,0,1,3.929,2H6.243A1.822,1.822,0,0,1,8.172,3.929Z" fill="none" stroke="#98a1b4" stroke-linecap="round" stroke-linejoin="round" stroke-width="1.5"/>
    <path id="Path_736" data-name="Path 736" d="M18.344,15.929v2.315a1.822,1.822,0,0,1-1.929,1.929H6a3,3,0,0,0,.941-.147c.085-.031.17-.062.255-.1a2.7,2.7,0,0,0,.764-.463,2.43,2.43,0,0,0,.216-.193l.031-.031L13.453,14h2.963A1.822,1.822,0,0,1,18.344,15.929Z" transform="translate(-0.914 -2.742)" fill="none" stroke="#98a1b4" stroke-linecap="round" stroke-linejoin="round" stroke-width="1.5"/>
    <path id="Path_737" data-name="Path 737" d="M4.209,21.219A3.08,3.08,0,0,1,2.18,19.19,3.1,3.1,0,0,0,4.209,21.219Z" transform="translate(-0.041 -3.928)" fill="none" stroke="#98a1b4" stroke-linecap="round" stroke-linejoin="round" stroke-width="1.5"/>
    <path id="Path_738" data-name="Path 738" d="M16.2,9.815l-2.091,2.091L8.86,17.144a3.092,3.092,0,0,0,.88-2.152V7.539L11.83,5.448a1.827,1.827,0,0,1,2.731,0L16.2,7.084A1.827,1.827,0,0,1,16.2,9.815Z" transform="translate(-1.567 -0.648)" fill="none" stroke="#98a1b4" stroke-linecap="round" stroke-linejoin="round" stroke-width="1.5"/>
    <path id="Path_739" data-name="Path 739" d="M5.772,18.543A.772.772,0,1,0,5,17.772.772.772,0,0,0,5.772,18.543Z" transform="translate(-0.685 -3.427)" fill="none" stroke="#98a1b4" stroke-linecap="round" stroke-linejoin="round" stroke-width="1.5"/>
  </g>
</svg>
