<svg xmlns="http://www.w3.org/2000/svg" width="20.424" height="20.105" viewBox="0 0 20.424 20.105">
  <g id="ic-archive" transform="translate(-0.25 -0.25)">
    <g id="Group_55884" data-name="Group 55884" transform="translate(1 1)">
      <path id="Path_745" data-name="Path 745" d="M2.346,25.64H18.577a.405.405,0,0,0,.4-.372l.941-11.683a.4.4,0,0,0-.4-.437H1.405a.4.4,0,0,0-.4.437l.941,11.683A.405.405,0,0,0,2.346,25.64Z" transform="translate(-1 -7.035)" fill="none" stroke="#0b6dde" stroke-linecap="round" stroke-linejoin="round" stroke-width="1.5"/>
      <path id="Path_746" data-name="Path 746" d="M4.332,9.951l-.226-2.8a.4.4,0,0,1,.4-.437H19.5a.4.4,0,0,1,.4.437l-.226,2.8" transform="translate(-2.542 -3.837)" fill="none" stroke="#0b6dde" stroke-linecap="round" stroke-linejoin="round" stroke-width="1.5"/>
      <path id="Path_747" data-name="Path 747" d="M8.352,3.873l-.2-2.436A.4.4,0,0,1,8.559,1H19.471a.4.4,0,0,1,.4.437l-.2,2.436" transform="translate(-4.555 -1)" fill="none" stroke="#0b6dde" stroke-linecap="round" stroke-linejoin="round" stroke-width="1.5"/>
      <path id="Path_748" data-name="Path 748" d="M11.458,21.207l2.127,2.49A.845.845,0,0,0,14.8,23.6l4.206-5.15" transform="translate(-5.609 -9.377)" fill="none" stroke="#0b6dde" stroke-linecap="round" stroke-linejoin="round" stroke-width="1.5"/>
    </g>
  </g>
</svg>
