<svg id="ic-setting" xmlns="http://www.w3.org/2000/svg" width="24" height="24" viewBox="0 0 24 24">
  <path id="Path_687" data-name="Path 687" d="M14.387,10.891a2.961,2.961,0,1,0,2.648,2.654A2.947,2.947,0,0,0,14.387,10.891ZM21.5,13.836a7.911,7.911,0,0,1-.074.962l2.087,1.638a.5.5,0,0,1,.113.636L21.652,20.5a.5.5,0,0,1-.605.212l-2.072-.834a.736.736,0,0,0-.7.079,8.321,8.321,0,0,1-.994.582.728.728,0,0,0-.408.557l-.31,2.215a.507.507,0,0,1-.492.424H12.123a.51.51,0,0,1-.492-.409l-.31-2.21a.745.745,0,0,0-.418-.567,7.124,7.124,0,0,1-.989-.582.741.741,0,0,0-.694-.079l-2.072.839a.5.5,0,0,1-.605-.212L4.569,17.087a.5.5,0,0,1,.113-.636l1.762-1.386a.738.738,0,0,0,.276-.651c-.015-.192-.025-.385-.025-.577s.01-.385.025-.572a.745.745,0,0,0-.281-.646L4.677,11.231a.5.5,0,0,1-.108-.631L6.542,7.176a.5.5,0,0,1,.605-.212L9.22,7.8a.736.736,0,0,0,.7-.079,7.673,7.673,0,0,1,.994-.577.744.744,0,0,0,.408-.562l.31-2.215a.507.507,0,0,1,.492-.424h3.947a.51.51,0,0,1,.492.409l.31,2.21a.745.745,0,0,0,.418.567,7.124,7.124,0,0,1,.989.582.741.741,0,0,0,.694.079l2.072-.839a.5.5,0,0,1,.605.212l1.974,3.424a.5.5,0,0,1-.113.636L21.75,12.608a.754.754,0,0,0-.281.651A5.667,5.667,0,0,1,21.5,13.836Z" transform="translate(-2.097 -1.836)" fill="none" stroke="#98a1b4" stroke-linecap="round" stroke-linejoin="round" stroke-width="2"/>
  <path id="Path_688" data-name="Path 688" d="M0,0H24V24H0Z" fill="none"/>
</svg>
