<svg id="ic-tasks" xmlns="http://www.w3.org/2000/svg" width="24" height="24" viewBox="0 0 24 24">
  <rect id="Rectangle_11420" data-name="Rectangle 11420" width="24" height="24" fill="none"/>
  <g id="Group_55880" data-name="Group 55880" transform="translate(1 1)">
    <path id="Path_740" data-name="Path 740" d="M17.721,10.981v-7.9A2.079,2.079,0,0,0,15.642,1H3.079A2.079,2.079,0,0,0,1,3.079V20.542a2.079,2.079,0,0,0,2.079,2.079H9.56" transform="translate(-1 -1)" fill="none" stroke="#98a1b4" stroke-linecap="round" stroke-linejoin="round" stroke-width="2"/>
    <path id="Path_741" data-name="Path 741" d="M6.364,7.4l1.749,1.57L10.79,5.7" transform="translate(-3.14 -2.873)" fill="none" stroke="#98a1b4" stroke-linecap="round" stroke-linejoin="round" stroke-width="1.8"/>
    <line id="Line_601" data-name="Line 601" x2="3.115" transform="translate(10.164 5.606)" fill="none" stroke="#98a1b4" stroke-linecap="round" stroke-linejoin="round" stroke-width="1.8"/>
    <path id="Path_742" data-name="Path 742" d="M6.364,17.031,8.112,18.6l2.678-3.278" transform="translate(-3.14 -6.713)" fill="none" stroke="#98a1b4" stroke-linecap="round" stroke-linejoin="round" stroke-width="1.8"/>
    <path id="Path_743" data-name="Path 743" d="M6.364,26.539l1.749,1.57L10.79,24.83" transform="translate(-3.14 -10.506)" fill="none" stroke="#98a1b4" stroke-linecap="round" stroke-linejoin="round" stroke-width="1.8"/>
    <line id="Line_602" data-name="Line 602" x2="3.115" transform="translate(10.164 11.392)" fill="none" stroke="#98a1b4" stroke-linecap="round" stroke-linejoin="round" stroke-width="1.8"/>
    <path id="Path_744" data-name="Path 744" d="M30.817,23.306h0a1.71,1.71,0,0,1-.477,1.131l-5.254,5.445L21.743,30.93a.149.149,0,0,1-.189-.18l.921-3.434,5.284-5.279a1.707,1.707,0,0,1,1.288-.5l.145.007A1.708,1.708,0,0,1,30.817,23.306Z" transform="translate(-9.197 -9.192)" fill="none" stroke="#98a1b4" stroke-linecap="round" stroke-linejoin="round" stroke-width="2"/>
    <line id="Line_603" data-name="Line 603" x2="2.443" y2="2.573" transform="translate(17.75 13.656)" fill="none" stroke="#98a1b4" stroke-linecap="round" stroke-linejoin="round" stroke-width="2"/>
  </g>
</svg>
