<svg id="lang" xmlns="http://www.w3.org/2000/svg" width="26" height="26" viewBox="0 0 26 26">
  <path id="Path_696" data-name="Path 696" d="M15.054,4.5A10.554,10.554,0,1,0,25.607,15.054,10.553,10.553,0,0,0,15.054,4.5Z" transform="translate(-2.054 -2.054)" fill="none" stroke="#98a1b4" stroke-linecap="round" stroke-linejoin="round" stroke-width="1.8"/>
  <path id="Path_697" data-name="Path 697" d="M19.181,4.5c-2.958,0-5.741,4.725-5.741,10.554s2.784,10.554,5.741,10.554,5.741-4.725,5.741-10.554S22.139,4.5,19.181,4.5Z" transform="translate(-6.181 -2.054)" fill="none" stroke="#98a1b4" stroke-linecap="round" stroke-linejoin="round" stroke-width="1.8"/>
  <path id="Path_698" data-name="Path 698" d="M11,11a12.266,12.266,0,0,0,14.039,0" transform="translate(-5.02 -5.044)" fill="none" stroke="#98a1b4" stroke-linecap="round" stroke-linejoin="round" stroke-width="1.8"/>
  <path id="Path_699" data-name="Path 699" d="M25.039,35.147a12.266,12.266,0,0,0-14.039,0" transform="translate(-5.02 -15.104)" fill="none" stroke="#98a1b4" stroke-linecap="round" stroke-linejoin="round" stroke-width="1.8"/>
  <path id="Path_700" data-name="Path 700" d="M24,4.5V25.607" transform="translate(-11 -2.054)" fill="none" stroke="#98a1b4" stroke-linecap="round" stroke-linejoin="round" stroke-width="1.8"/>
  <path id="Path_701" data-name="Path 701" d="M25.607,24H4.5" transform="translate(-2.054 -11)" fill="none" stroke="#98a1b4" stroke-linecap="round" stroke-linejoin="round" stroke-width="1.8"/>
  <path id="Path_702" data-name="Path 702" d="M0,0H26V26H0Z" fill="none"/>
</svg>
