<svg xmlns="http://www.w3.org/2000/svg" xmlns:xlink="http://www.w3.org/1999/xlink" width="175" height="41.682" viewBox="0 0 175 41.682">
  <defs>
    <clipPath id="clip-path">
      <rect id="Rectangle_514" data-name="Rectangle 514" width="175" height="41.682" fill="none"/>
    </clipPath>
  </defs>
  <g id="logo" transform="translate(0 0)">
    <g id="Group_3469" data-name="Group 3469" transform="translate(0 0)" clip-path="url(#clip-path)">
      <path id="Path_666" data-name="Path 666" d="M44.853,11.847c-2.342-4.617-7.4-7.2-13.476-7.546.016.189.028.372.028.564a6.394,6.394,0,0,1-.2,1.57A14.463,14.463,0,0,1,41.092,13.8c4.068,8.01-.7,18.718-10.641,23.915s-21.3,2.911-25.368-5.1S5.782,13.9,15.725,8.7a25.674,25.674,0,0,1,3.716-1.578,5.942,5.942,0,0,1-.241-.785,34.92,34.92,0,0,0-3.8,1.7C3.378,14.319-2.922,26.19,1.325,34.564s17.434,10.08,29.455,3.807S49.1,20.22,44.853,11.847" transform="translate(0 -0.472)" fill="#26a9e0"/>
      <path id="Path_667" data-name="Path 667" d="M27.79,8.775A4.363,4.363,0,0,0,32.123,4.39a4.337,4.337,0,1,0-8.673,0,4.364,4.364,0,0,0,4.34,4.385" transform="translate(-2.574 0)" fill="#005a88"/>
      <path id="Path_668" data-name="Path 668" d="M27.08,35.094a1.452,1.452,0,0,1-.984.435.729.729,0,0,1-.547-.29.876.876,0,0,1-.256-.584,11.967,11.967,0,0,1,.471-2.367l6.009-20.832H30.026l-9.938,1.6-.367,1.169c.39-.028.738-.038,1.056-.038a2.175,2.175,0,0,1,1.513.508,1.548,1.548,0,0,1,.564,1.167,11.967,11.967,0,0,1-.58,3.022L18.194,32.907a9.96,9.96,0,0,0-.512,2.769,3.581,3.581,0,0,0,1.129,2.713,4.21,4.21,0,0,0,3.023,1.078q4.99,0,9.433-7.726l-1.015-.581a17.416,17.416,0,0,1-3.172,3.936" transform="translate(-1.941 -1.257)" fill="#005a88"/>
      <path id="Path_669" data-name="Path 669" d="M67.037,21.4a.41.41,0,0,1-.137.308.42.42,0,0,1-.3.129H64.472a.475.475,0,0,1-.312-.123.4.4,0,0,1-.146-.314v-1.92a.415.415,0,0,1,.146-.307.463.463,0,0,1,.312-.134H66.6a.418.418,0,0,1,.3.139.427.427,0,0,1,.137.3Zm-.062,13.953a.469.469,0,0,1-.134.316.407.407,0,0,1-.308.143H64.518a.4.4,0,0,1-.3-.143.453.453,0,0,1-.134-.316V23.921a.441.441,0,0,1,.438-.436h2.016a.438.438,0,0,1,.442.436Z" transform="translate(-7.026 -2.09)" fill="#005a88"/>
      <path id="Path_670" data-name="Path 670" d="M79.353,35.885a.491.491,0,0,1-.115.322.382.382,0,0,1-.3.137H76.887a.375.375,0,0,1-.3-.137.476.476,0,0,1-.118-.322V28.316a3.021,3.021,0,0,0-.312-1.5,1.234,1.234,0,0,0-1.184-.548H73.62a1.229,1.229,0,0,0-1.174.548,3.062,3.062,0,0,0-.309,1.5v7.569a.485.485,0,0,1-.118.322.381.381,0,0,1-.3.137h-2.05a.383.383,0,0,1-.3-.137.5.5,0,0,1-.118-.322V28.316a4.54,4.54,0,0,1,1.141-3.24,4.212,4.212,0,0,1,3.229-1.213h1.354a4.763,4.763,0,0,1,2.373.555,3.621,3.621,0,0,1,1.5,1.56,5.134,5.134,0,0,1,.506,2.338Z" transform="translate(-7.6 -2.619)" fill="#005a88"/>
      <path id="Path_671" data-name="Path 671" d="M88.751,35.651c0,.22-.142.35-.418.393s-.645.081-1.149.118-.974.056-1.415.056a5.842,5.842,0,0,1-1.478-.168,2.648,2.648,0,0,1-1.062-.535,2.289,2.289,0,0,1-.672-1.019,4.562,4.562,0,0,1-.238-1.556V21.92c0-.245.146-.386.439-.439l2.029-.351h.064a.33.33,0,0,1,.261.136.462.462,0,0,1,.111.3v2.145H88.31a.427.427,0,0,1,.322.119.421.421,0,0,1,.119.317v1.294a.434.434,0,0,1-.129.309.425.425,0,0,1-.312.127H85.224v7.06a.934.934,0,0,0,.3.826,1.994,1.994,0,0,0,1.037.2h1.728c.305,0,.462.109.462.331Z" transform="translate(-9.035 -2.319)" fill="#005a88"/>
      <path id="Path_672" data-name="Path 672" d="M100.314,30.635c0,.369-.146.554-.44.554H92.753v.064a3.22,3.22,0,0,0,.6,1.958,2.337,2.337,0,0,0,2.018.82,38.813,38.813,0,0,0,4.025-.226h.062c.266,0,.4.112.4.333v1.44a.653.653,0,0,1-.094.4.669.669,0,0,1-.367.174c-.69.127-1.352.22-1.982.277s-1.388.087-2.257.087a6.183,6.183,0,0,1-1.808-.281,5.19,5.19,0,0,1-1.713-.9,4.439,4.439,0,0,1-1.29-1.7,6.346,6.346,0,0,1-.483-2.611V29.416a5.732,5.732,0,0,1,1.382-4.06,5,5,0,0,1,3.869-1.491,5.373,5.373,0,0,1,2.815.706,4.533,4.533,0,0,1,1.784,1.952,6.613,6.613,0,0,1,.6,2.893Zm-2.9-1.506v-.086a3.292,3.292,0,0,0-.292-1.437,2.121,2.121,0,0,0-.8-.933,2.233,2.233,0,0,0-1.205-.321,2.176,2.176,0,0,0-1.691.712,2.844,2.844,0,0,0-.647,1.979v.086Z" transform="translate(-9.862 -2.619)" fill="#005a88"/>
      <path id="Path_673" data-name="Path 673" d="M108.826,25.89c0,.267-.214.4-.642.4-.378,0-.761.014-1.148.035a6.811,6.811,0,0,0-1,.118v9.447a.488.488,0,0,1-.113.322.359.359,0,0,1-.292.138h-2.038a.4.4,0,0,1-.306-.143.469.469,0,0,1-.132-.317V25.146c0-.307.2-.523.589-.652a11.637,11.637,0,0,1,2.02-.48,16.894,16.894,0,0,1,2.419-.15c.428,0,.642.119.642.362Z" transform="translate(-11.321 -2.619)" fill="#005a88"/>
      <path id="Path_674" data-name="Path 674" d="M119,35.492a.765.765,0,0,1-.048.324.449.449,0,0,1-.247.157,18.178,18.178,0,0,1-1.878.4,14.382,14.382,0,0,1-2.243.149,6.917,6.917,0,0,1-3.924-.87,3.183,3.183,0,0,1-1.235-2.8v-.11a4.476,4.476,0,0,1,.273-1.652,2.726,2.726,0,0,1,.88-1.155,4.126,4.126,0,0,1,1.588-.7A10.719,10.719,0,0,1,114.58,29h1.536v-.961a1.745,1.745,0,0,0-.452-1.4,2.305,2.305,0,0,0-1.467-.372,31.355,31.355,0,0,0-3.568.168.722.722,0,0,1-.377-.079.322.322,0,0,1-.126-.294v-1.4c0-.232.142-.385.416-.458a18.926,18.926,0,0,1,3.655-.342,6.643,6.643,0,0,1,2.627.46,3.372,3.372,0,0,1,1.622,1.4A4.5,4.5,0,0,1,119,28.041Zm-2.881-1.335V30.922H114.58a4.47,4.47,0,0,0-1.465.175,1,1,0,0,0-.62.547,2.63,2.63,0,0,0-.157,1.027V32.8a1.811,1.811,0,0,0,.2.944,1.081,1.081,0,0,0,.674.461,6.767,6.767,0,0,0,2.908-.049" transform="translate(-12.009 -2.619)" fill="#005a88"/>
      <path id="Path_675" data-name="Path 675" d="M129.917,35.672a.627.627,0,0,1-.1.38.658.658,0,0,1-.364.184,11.653,11.653,0,0,1-2.817.282,5.459,5.459,0,0,1-2.569-.6,4.169,4.169,0,0,1-1.776-1.786,6.121,6.121,0,0,1-.641-2.929V29.171a6.091,6.091,0,0,1,.641-2.924,4.172,4.172,0,0,1,1.776-1.791,5.467,5.467,0,0,1,2.569-.592,14.741,14.741,0,0,1,1.663.079,9.032,9.032,0,0,1,1.154.2.484.484,0,0,1,.461.564v1.432c0,.212-.134.318-.4.318h-.063a23.735,23.735,0,0,0-2.817-.149,1.978,1.978,0,0,0-1.5.645,3.236,3.236,0,0,0-.6,2.218v2.037a3.241,3.241,0,0,0,.6,2.208,1.962,1.962,0,0,0,1.5.657q.994,0,1.629-.043c.43-.033.821-.064,1.188-.108h.063c.264,0,.4.108.4.321Z" transform="translate(-13.351 -2.619)" fill="#005a88"/>
      <path id="Path_676" data-name="Path 676" d="M138.712,35.651c0,.22-.141.35-.418.393-.259.044-.645.081-1.149.118s-.969.056-1.414.056a5.822,5.822,0,0,1-1.476-.168,2.654,2.654,0,0,1-1.062-.535,2.33,2.33,0,0,1-.675-1.019,4.635,4.635,0,0,1-.233-1.556V21.92c0-.245.144-.386.438-.439l2.026-.351h.068a.328.328,0,0,1,.259.136.477.477,0,0,1,.111.3v2.145h3.085a.421.421,0,0,1,.321.119.414.414,0,0,1,.118.317v1.294a.411.411,0,0,1-.127.309.417.417,0,0,1-.312.127h-3.085v7.06a.936.936,0,0,0,.3.826,1.971,1.971,0,0,0,1.034.2h1.728c.31,0,.461.109.461.331Z" transform="translate(-14.518 -2.319)" fill="#005a88"/>
      <path id="Path_677" data-name="Path 677" d="M143.5,21.4a.41.41,0,0,1-.137.308.425.425,0,0,1-.3.129h-2.123a.466.466,0,0,1-.314-.123.4.4,0,0,1-.144-.314v-1.92a.407.407,0,0,1,.144-.307.454.454,0,0,1,.314-.134h2.123a.423.423,0,0,1,.3.139.427.427,0,0,1,.137.3Zm-.064,13.953a.459.459,0,0,1-.132.316.409.409,0,0,1-.306.143h-2.017a.409.409,0,0,1-.306-.143.459.459,0,0,1-.132-.316V23.921a.414.414,0,0,1,.127-.307.418.418,0,0,1,.311-.129H143a.412.412,0,0,1,.309.129.4.4,0,0,1,.129.307Z" transform="translate(-15.418 -2.09)" fill="#005a88"/>
      <path id="Path_678" data-name="Path 678" d="M155.83,24.386a.351.351,0,0,1-.022.15l-2.754,9.952a2.833,2.833,0,0,1-5.446,0l-2.754-9.952a.338.338,0,0,1-.022-.15.365.365,0,0,1,.1-.247.319.319,0,0,1,.256-.105h2.189c.228,0,.376.146.436.436l2.094,9.162c.071.361.212.544.414.544s.347-.183.418-.544l2.1-9.162a.607.607,0,0,1,.17-.325.426.426,0,0,1,.294-.111h2.187a.315.315,0,0,1,.244.1.35.35,0,0,1,.1.256" transform="translate(-15.895 -2.638)" fill="#005a88"/>
      <path id="Path_679" data-name="Path 679" d="M167.558,30.635c0,.369-.141.554-.435.554H160v.064a3.226,3.226,0,0,0,.6,1.958,2.337,2.337,0,0,0,2.019.82,38.921,38.921,0,0,0,4.025-.226h.063c.266,0,.4.112.4.333v1.44a.642.642,0,0,1-.093.4.669.669,0,0,1-.366.174q-1.035.191-1.985.277c-.637.056-1.384.087-2.253.087a6.184,6.184,0,0,1-1.809-.281,5.246,5.246,0,0,1-1.716-.9,4.5,4.5,0,0,1-1.287-1.7,6.33,6.33,0,0,1-.485-2.611V29.416a5.749,5.749,0,0,1,1.383-4.06,5.013,5.013,0,0,1,3.871-1.491,5.375,5.375,0,0,1,2.815.706,4.54,4.54,0,0,1,1.782,1.952,6.587,6.587,0,0,1,.6,2.893Zm-2.9-1.506v-.086a3.357,3.357,0,0,0-.288-1.437,2.143,2.143,0,0,0-.806-.933,2.223,2.223,0,0,0-1.2-.321,2.169,2.169,0,0,0-1.692.712,2.822,2.822,0,0,0-.645,1.979v.086Z" transform="translate(-17.243 -2.619)" fill="#005a88"/>
      <path id="Path_680" data-name="Path 680" d="M183.765,33.109a3.127,3.127,0,0,1-1.941,2.96,5.611,5.611,0,0,1-2.342.45c-.491,0-1.114-.036-1.869-.1a12.728,12.728,0,0,1-2.05-.337.488.488,0,0,1-.418-.5V34.264a.31.31,0,0,1,.12-.233.387.387,0,0,1,.279-.108h.062a30.769,30.769,0,0,0,3.672.233,2.021,2.021,0,0,0,1.24-.271.965.965,0,0,0,.318-.776.816.816,0,0,0-.223-.565,3.615,3.615,0,0,0-.735-.556l-3-1.837a4.094,4.094,0,0,1-1.339-1.3,3.1,3.1,0,0,1-.5-1.712q0-3.272,4.154-3.276a16.4,16.4,0,0,1,2.118.113q.837.112,1.777.323a.471.471,0,0,1,.393.5v1.261c0,.277-.126.417-.372.417h-.063a26.4,26.4,0,0,0-3.607-.257,2.446,2.446,0,0,0-1.156.2.745.745,0,0,0-.361.712.5.5,0,0,0,.166.4,6.217,6.217,0,0,0,.711.506l2.872,1.747a5.562,5.562,0,0,1,1.334,1.079,2.938,2.938,0,0,1,.609,1.088,4.332,4.332,0,0,1,.15,1.154" transform="translate(-19.211 -2.619)" fill="#26a9e0"/>
      <path id="Path_681" data-name="Path 681" d="M195.394,35.492a.648.648,0,0,1-.055.324.419.419,0,0,1-.24.157,18.24,18.24,0,0,1-1.881.4,14.415,14.415,0,0,1-2.247.149,6.913,6.913,0,0,1-3.919-.87,3.177,3.177,0,0,1-1.233-2.8v-.11a4.443,4.443,0,0,1,.27-1.652,2.711,2.711,0,0,1,.885-1.155,4.088,4.088,0,0,1,1.583-.7A10.707,10.707,0,0,1,190.97,29h1.541v-.961a1.751,1.751,0,0,0-.454-1.4,2.3,2.3,0,0,0-1.469-.372,31.408,31.408,0,0,0-3.566.168.707.707,0,0,1-.376-.079.322.322,0,0,1-.126-.294v-1.4c0-.232.142-.385.421-.458a18.821,18.821,0,0,1,3.646-.342,6.646,6.646,0,0,1,2.629.46,3.359,3.359,0,0,1,1.62,1.4,4.485,4.485,0,0,1,.556,2.313Zm-2.883-1.335V30.922H190.97a4.435,4.435,0,0,0-1.458.175,1.022,1.022,0,0,0-.624.547,2.685,2.685,0,0,0-.155,1.027V32.8a1.8,1.8,0,0,0,.2.944,1.063,1.063,0,0,0,.671.461,5.407,5.407,0,0,0,1.367.134,5.483,5.483,0,0,0,1.541-.183" transform="translate(-20.394 -2.619)" fill="#26a9e0"/>
      <path id="Path_682" data-name="Path 682" d="M173.513,35.919a1.644,1.644,0,1,1-1.649-1.645,1.647,1.647,0,0,1,1.649,1.645" transform="translate(-18.682 -3.762)" fill="#26a9e0"/>
    </g>
  </g>
</svg>
