<svg id="setting" xmlns="http://www.w3.org/2000/svg" width="27.781" height="27.781" viewBox="0 0 27.781 27.781">
  <path id="Path_687" data-name="Path 687" d="M16.128,12.095a3.472,3.472,0,1,0,3.114,3.114A3.467,3.467,0,0,0,16.128,12.095Zm8.363,3.455a9.26,9.26,0,0,1-.087,1.129L26.858,18.6a.587.587,0,0,1,.133.747L24.67,23.364a.584.584,0,0,1-.712.249l-2.437-.978a.867.867,0,0,0-.822.093,9.79,9.79,0,0,1-1.169.683.855.855,0,0,0-.48.654l-.365,2.6a.6.6,0,0,1-.579.5H13.465a.6.6,0,0,1-.579-.48l-.365-2.593a.874.874,0,0,0-.492-.666,8.382,8.382,0,0,1-1.163-.683.873.873,0,0,0-.816-.093l-2.437.984a.591.591,0,0,1-.712-.249L4.581,19.364a.581.581,0,0,1,.133-.747l2.072-1.626a.865.865,0,0,0,.324-.764c-.017-.226-.029-.451-.029-.677s.012-.451.029-.671a.874.874,0,0,0-.33-.758L4.708,12.494a.586.586,0,0,1-.127-.741L6.9,7.737a.584.584,0,0,1,.712-.249l2.437.978a.867.867,0,0,0,.822-.093A9.029,9.029,0,0,1,12.041,7.7a.874.874,0,0,0,.48-.66l.365-2.6a.6.6,0,0,1,.579-.5h4.642a.6.6,0,0,1,.579.48l.365,2.593a.874.874,0,0,0,.492.666,8.382,8.382,0,0,1,1.163.683.873.873,0,0,0,.816.093l2.437-.984a.591.591,0,0,1,.712.249l2.321,4.017a.581.581,0,0,1-.133.747l-2.072,1.626a.884.884,0,0,0-.33.764A6.633,6.633,0,0,1,24.491,15.55Z" transform="translate(-1.896 -1.66)" fill="none" stroke="#98a1b4" stroke-linecap="round" stroke-linejoin="round" stroke-width="2"/>
  <path id="Path_688" data-name="Path 688" d="M0,0H27.781V27.781H0Z" fill="none"/>
</svg>
