<svg id="setting-noti" xmlns="http://www.w3.org/2000/svg" width="16" height="16" viewBox="0 0 16 16">
  <path id="Path_687" data-name="Path 687" d="M11.176,8.625a1.995,1.995,0,1,0,1.788,1.789A1.991,1.991,0,0,0,11.176,8.625Zm4.8,1.985a5.322,5.322,0,0,1-.05.648l1.409,1.1a.338.338,0,0,1,.076.429L16.082,15.1a.335.335,0,0,1-.409.143l-1.4-.562a.5.5,0,0,0-.472.053,5.621,5.621,0,0,1-.671.392.491.491,0,0,0-.276.376l-.209,1.493a.342.342,0,0,1-.332.286H9.648A.344.344,0,0,1,9.315,17l-.209-1.489a.5.5,0,0,0-.282-.382,4.813,4.813,0,0,1-.668-.392.5.5,0,0,0-.469-.053l-1.4.565a.339.339,0,0,1-.409-.143L4.547,12.8a.334.334,0,0,1,.076-.429l1.19-.934A.5.5,0,0,0,6,11c-.01-.13-.017-.259-.017-.389s.007-.259.017-.386a.5.5,0,0,0-.189-.436L4.62,8.854a.337.337,0,0,1-.073-.426L5.879,6.121a.335.335,0,0,1,.409-.143l1.4.562a.5.5,0,0,0,.472-.053A5.184,5.184,0,0,1,8.83,6.1a.5.5,0,0,0,.276-.379l.209-1.493a.342.342,0,0,1,.332-.286h2.665a.344.344,0,0,1,.332.276l.209,1.489a.5.5,0,0,0,.282.382,4.812,4.812,0,0,1,.668.392.5.5,0,0,0,.469.053l1.4-.565a.339.339,0,0,1,.409.143l1.333,2.307a.334.334,0,0,1-.076.429l-1.19.934a.508.508,0,0,0-.189.439A3.812,3.812,0,0,1,15.979,10.609Z" transform="translate(-2.98 -2.609)" fill="none" stroke="#98a1b4" stroke-linecap="round" stroke-linejoin="round" stroke-width="1.2"/>
  <path id="Path_688" data-name="Path 688" d="M0,0H16V16H0Z" fill="none"/>
</svg>
