<svg xmlns="http://www.w3.org/2000/svg" width="29.9" height="30.068" viewBox="0 0 29.9 30.068">
  <g id="tasks-numbers-icon" transform="translate(1 1)">
    <path id="Path_740" data-name="Path 740" d="M22.577,13.88V3.683A2.682,2.682,0,0,0,19.894,1H3.682A2.682,2.682,0,0,0,1,3.683V26.216A2.683,2.683,0,0,0,3.682,28.9h8.364" transform="translate(-1 -1)" fill="none" stroke="#0b6dde" stroke-linecap="round" stroke-linejoin="round" stroke-width="2"/>
    <path id="Path_741" data-name="Path 741" d="M6.364,7.9,8.62,9.927,12.075,5.7" transform="translate(-2.203 -2.054)" fill="none" stroke="#0b6dde" stroke-linecap="round" stroke-linejoin="round" stroke-width="1.8"/>
    <line id="Line_601" data-name="Line 601" x2="4.019" transform="translate(13.115 7.234)" fill="none" stroke="#0b6dde" stroke-linecap="round" stroke-linejoin="round" stroke-width="1.8"/>
    <path id="Path_742" data-name="Path 742" d="M6.364,17.527,8.62,19.553l3.456-4.23" transform="translate(-2.203 -4.213)" fill="none" stroke="#0b6dde" stroke-linecap="round" stroke-linejoin="round" stroke-width="1.8"/>
    <path id="Path_743" data-name="Path 743" d="M6.364,27.035,8.62,29.061l3.456-4.23" transform="translate(-2.203 -6.346)" fill="none" stroke="#0b6dde" stroke-linecap="round" stroke-linejoin="round" stroke-width="1.8"/>
    <line id="Line_602" data-name="Line 602" x2="4.019" transform="translate(13.115 14.7)" fill="none" stroke="#0b6dde" stroke-linecap="round" stroke-linejoin="round" stroke-width="1.8"/>
    <path id="Path_744" data-name="Path 744" d="M33.508,23.82h0a2.206,2.206,0,0,1-.616,1.459l-6.78,7.027L21.8,33.657a.192.192,0,0,1-.244-.233l1.188-4.431,6.818-6.812a2.2,2.2,0,0,1,1.662-.642l.187.009A2.2,2.2,0,0,1,33.508,23.82Z" transform="translate(-5.61 -5.607)" fill="none" stroke="#0b6dde" stroke-linecap="round" stroke-linejoin="round" stroke-width="2"/>
    <line id="Line_603" data-name="Line 603" x2="3.152" y2="3.321" transform="translate(22.904 17.621)" fill="none" stroke="#0b6dde" stroke-linecap="round" stroke-linejoin="round" stroke-width="2"/>
  </g>
</svg>
